<?xml version="1.0" encoding="UTF-8"?>
<svg width="80px" height="78px" viewBox="0 0 80 78" version="1.1" xmlns="http://www.w3.org/2000/svg" xmlns:xlink="http://www.w3.org/1999/xlink">
    <!-- Generator: Sketch 42 (36781) - http://www.bohemiancoding.com/sketch -->
    <title>logistics-delivery-truck-and-clock</title>
    <desc>Created with Sketch.</desc>
    <defs></defs>
    <g id="Главная" stroke="none" stroke-width="1" fill="none" fill-rule="evenodd">
        <g id="Desktop-HD" transform="translate(-940.000000, -609.000000)" fill="#039A56">
            <g id="logistics-delivery-truck-and-clock" transform="translate(940.000000, 609.000000)">
                <g id="Capa_1">
                    <path d="M51.228366,32.8008108 C51.1320261,31.9980695 50.8282353,31.2659537 50.3613072,30.65461 L53.5670588,10.6749498 C53.6864052,9.9315444 53.2115033,9.22279537 52.4810458,9.05332046 L52.4452288,9.04518147 C51.7147712,8.87570656 50.9786928,9.30392278 50.7613072,10.0244865 L44.9213072,29.3930656 C43.4820915,30.1197992 42.4830065,31.6012278 42.4830065,33.3265637 C42.4830065,35.762749 44.4556863,37.7449884 46.8814379,37.7449884 C47.3334641,37.7449884 47.760915,37.6563784 48.1715033,37.5287799 L60.3720261,43.8959691 C61.043268,44.2462085 61.8695425,44.0275058 62.2814379,43.3903012 L62.2998693,43.3618147 C62.7118954,42.7248726 62.574902,41.8777606 61.9830065,41.4045174 L51.228366,32.8008108 Z M44.7088889,33.3265637 C44.7088889,32.1236988 45.6837908,31.1446564 46.8815686,31.1446564 C48.0803922,31.1446564 49.0552941,32.1236988 49.0552941,33.3265637 C49.0552941,34.5303475 48.0803922,35.5095212 46.8815686,35.5095212 C45.6837908,35.5095212 44.7088889,34.5304788 44.7088889,33.3265637 Z M80,33.3265637 C80,48.1156448 70.3359477,60.6752973 57.0184314,64.9858147 L57.0177778,60.2499691 C67.8355556,56.1284865 75.5481046,45.6172355 75.5481046,33.3265637 C75.5481046,17.4528958 62.6879739,4.53827799 46.8815686,4.53827799 C31.0750327,4.53827799 18.2150327,17.4528958 18.2150327,33.3265637 C18.2150327,34.9189189 18.3501961,36.4796371 18.599085,38.0025483 L14.0969935,38.0025483 C13.8818301,36.4737297 13.7631373,34.9140618 13.7631373,33.3265637 C13.7631373,14.9871737 28.6197386,0.0674749035 46.8815686,0.0674749035 C65.1433987,0.0674749035 80,14.9871737 80,33.3265637 Z M52.654902,57.0252201 L42.4601307,46.8988649 C41.8146405,46.2505019 40.9354248,45.8927799 40.0338562,45.8927799 L34.8918954,45.8927799 L34.8918954,43.9592432 C34.8918954,42.5173282 33.7233987,41.355027 32.2875817,41.355027 L2.59359477,41.355027 C1.1579085,41.355027 0.000392156863,42.5173282 0.000392156863,43.9592432 L0.000392156863,61.3950734 L53.6789542,61.3950734 L53.6789542,59.4951429 C53.6788235,58.5676911 53.3115033,57.6734517 52.654902,57.0252201 Z M48.2141176,57.3606255 L38.3420915,57.3606255 C38.1194771,57.3606255 37.9414379,57.1816988 37.9414379,56.958139 L37.9414379,49.3019691 C37.9414379,49.0784093 38.1193464,48.8994826 38.3420915,48.8994826 L40.2230065,48.8994826 C40.323268,48.8994826 40.4345098,48.9443784 40.5124183,49.0113282 L48.4924183,56.6677606 C48.7594771,56.9132432 48.5813072,57.3606255 48.2141176,57.3606255 Z M53.68,62.8356757 L53.68,68.6039923 C53.68,70.042888 52.5184314,71.2095212 51.0854902,71.2095212 L48.3094118,71.2095212 C47.8078431,67.7528108 44.8414379,65.0952973 41.2611765,65.0952973 C37.689281,65.0952973 34.7230065,67.7528108 34.2214379,71.2095212 L20.1504575,71.2095212 C19.6488889,67.7528108 16.6824837,65.0952973 13.110719,65.0952973 C9.53895425,65.0952973 6.57254902,67.7528108 6.07098039,71.2095212 L2.5945098,71.2095212 C1.16156863,71.2092587 0,70.042888 0,68.6041236 L0,62.8356757 L53.68,62.8356757 Z M41.2691503,66.8384865 C38.2976471,66.8384865 35.8824837,69.252749 35.8824837,72.2368726 C35.8824837,75.2212587 38.2976471,77.6468108 41.2691503,77.6468108 C44.2407843,77.6468108 46.6448366,75.2212587 46.6448366,72.2368726 C46.6448366,69.252749 44.2407843,66.8384865 41.2691503,66.8384865 Z M41.2691503,74.9419073 C39.7779085,74.9419073 38.575817,73.7348417 38.575817,72.2370039 C38.575817,70.7504556 39.7777778,69.5322317 41.2691503,69.5322317 C42.7494118,69.5322317 43.9515033,70.7503243 43.9515033,72.2370039 C43.9515033,73.7348417 42.7494118,74.9419073 41.2691503,74.9419073 Z M13.1111111,66.8384865 C10.1396078,66.8384865 7.72431373,69.252749 7.72431373,72.2368726 C7.72431373,75.2212587 10.1396078,77.6468108 13.1111111,77.6468108 C16.0827451,77.6468108 18.4867974,75.2212587 18.4867974,72.2368726 C18.4867974,69.252749 16.0827451,66.8384865 13.1111111,66.8384865 Z M13.1111111,74.9419073 C11.6197386,74.9419073 10.4177778,73.7348417 10.4177778,72.2370039 C10.4177778,70.7504556 11.6197386,69.5322317 13.1111111,69.5322317 C14.5913725,69.5322317 15.8044444,70.7503243 15.8044444,72.2370039 C15.8044444,73.7348417 14.5913725,74.9419073 13.1111111,74.9419073 Z" id="Shape"></path>
                </g>
            </g>
        </g>
    </g>
</svg>