<?xml version="1.0" encoding="UTF-8"?>
<svg width="80px" height="77px" viewBox="0 0 80 77" version="1.1" xmlns="http://www.w3.org/2000/svg" xmlns:xlink="http://www.w3.org/1999/xlink">
    <!-- Generator: Sketch 42 (36781) - http://www.bohemiancoding.com/sketch -->
    <title>Shape</title>
    <desc>Created with Sketch.</desc>
    <defs></defs>
    <g id="Главная" stroke="none" stroke-width="1" fill="none" fill-rule="evenodd">
        <g id="Desktop-HD" transform="translate(-570.000000, -609.000000)" fill="#0C598F">
            <g id="icon" transform="translate(570.000000, 609.000000)">
                <g id="Capa_1">
                    <path d="M78.7533178,31.602735 C66.0125563,58.5858586 61.8671639,58.5858586 59.3939394,58.5858586 L35.027195,58.5858586 C26.4927428,58.5858586 19.9533178,53.5663092 18.3664336,45.7933178 C18.3177001,45.555742 13.4930847,21.8743124 12.2595183,15.2587413 C11.6533955,12.0149184 10.1121989,9.85236985 4.56876457,9.85236985 C2.04376068,9.85236985 0,7.80860917 0,5.28360528 C0,2.7586014 2.04376068,0.714840715 4.56876457,0.714840715 C13.7672106,0.714840715 19.6883294,5.28360528 21.2417094,13.5804817 C22.4630925,20.1259984 27.2724786,43.7282362 27.3212121,43.9688578 C28.2928361,48.738648 32.5661538,49.4513753 35.027195,49.4513753 L58.1908314,49.4513753 C60.6792852,46.7771251 66.3506449,36.4730381 70.4899456,27.7010101 C71.568174,25.4196737 74.2942036,24.4480497 76.5724942,25.5201865 C78.8568765,26.5953691 79.8315462,29.3183528 78.7533178,31.602735 Z M31.981352,61.6317016 C27.7750427,61.6317016 24.3667444,65.04 24.3667444,69.2463092 C24.3667444,73.4526185 27.7750427,76.8609169 31.981352,76.8609169 C36.1876612,76.8609169 39.5959596,73.4526185 39.5959596,69.2463092 C39.5959596,65.04 36.1876612,61.6317016 31.981352,61.6317016 Z M59.3939394,61.6317016 C55.1876301,61.6317016 51.7793318,65.04 51.7793318,69.2463092 C51.7793318,73.4526185 55.1876301,76.8609169 59.3939394,76.8609169 C63.6002486,76.8609169 67.008547,73.4526185 67.008547,69.2463092 C67.008547,65.04 63.6002486,61.6317016 59.3939394,61.6317016 Z M44.6611966,36.7898057 C44.9657809,37.036519 45.3404196,37.1553069 45.7150583,37.1553069 C46.089697,37.1553069 46.458244,37.036519 46.76892,36.7898057 C47.0735043,36.5491841 55.3825641,28.4441958 59.9147786,21.7006993 C60.2650505,21.1768143 60.2985548,20.5067288 60.0000622,19.9523854 C59.7107071,19.4010878 59.1319969,19.0538617 58.5075991,19.0538617 L51.7275524,19.0538617 C51.7275524,19.0538617 51.0666045,5.98414918 50.6340948,5.37802642 C50.0066511,4.48254856 47.4146387,3.87337995 45.7120124,3.87337995 C44.0032945,3.87337995 41.3655944,4.48254856 40.7351049,5.37802642 C40.305641,5.98110334 39.7360684,19.0538617 39.7360684,19.0538617 L32.8676923,19.0538617 C32.2402486,19.0538617 31.6645843,19.4010878 31.3691375,19.9523854 C31.0736908,20.5067288 31.107195,21.1798601 31.4544211,21.7006993 C35.9896814,28.4472416 44.3596581,36.5491841 44.6611966,36.7898057 Z" id="Shape"></path>
                </g>
            </g>
        </g>
    </g>
</svg>