<?xml version="1.0" encoding="UTF-8"?>
<svg width="80px" height="97px" viewBox="0 0 80 97" version="1.1" xmlns="http://www.w3.org/2000/svg" xmlns:xlink="http://www.w3.org/1999/xlink">
    <!-- Generator: Sketch 42 (36781) - http://www.bohemiancoding.com/sketch -->
    <title>text-documents</title>
    <desc>Created with Sketch.</desc>
    <defs></defs>
    <g id="Главная" stroke="none" stroke-width="1" fill="none" fill-rule="evenodd">
        <g id="Desktop-HD" transform="translate(-177.000000, -609.000000)" fill="#DF8005">
            <g id="text-documents" transform="translate(177.000000, 609.000000)">
                <g id="Capa_1">
                    <g id="Group">
                        <path d="M73.0281188,0 L20.069703,0 C16.299802,0 13.2318812,3.07373196 13.2318812,6.84856357 L13.2318812,11.2223544 L7.00712871,11.2223544 C3.23722772,11.2223544 0.16950495,14.2960864 0.16950495,18.070918 L0.16950495,89.179083 C0.16950495,92.9539146 3.23722772,96.0276465 7.00712871,96.0276465 L59.9673267,96.0276465 C63.7374257,96.0276465 66.8051485,92.9539146 66.8051485,89.179083 L66.8051485,84.8052921 L73.0281188,84.8052921 C76.7986139,84.8052921 79.8659406,81.7315601 79.8659406,77.9569269 L79.8659406,6.84856357 C79.8659406,3.07373196 76.7986139,0 73.0281188,0 Z M61.3352475,89.179083 C61.3352475,89.9335336 60.720396,90.5489543 59.9673267,90.5489543 L7.00712871,90.5489543 C6.25425743,90.5489543 5.63940594,89.9333353 5.63940594,89.179083 L5.63940594,18.070918 C5.63940594,17.3158724 6.25425743,16.7010466 7.00712871,16.7010466 L13.2318812,16.7010466 L13.2318812,77.9567285 C13.2318812,81.7313618 16.299802,84.8050938 20.069703,84.8050938 L61.3352475,84.8050938 L61.3352475,89.179083 L61.3352475,89.179083 Z M74.3960396,77.9569269 C74.3960396,78.7111792 73.7825743,79.3267982 73.0281188,79.3267982 L20.069703,79.3267982 C19.3150495,79.3267982 18.7021782,78.7111792 18.7021782,77.9569269 L18.7021782,6.84856357 C18.7021782,6.09371625 19.3152475,5.47869219 20.069703,5.47869219 L73.0279208,5.47869219 C73.7825743,5.47869219 74.3958416,6.09391458 74.3958416,6.84856357 L74.3958416,77.9569269 L74.3960396,77.9569269 Z" id="Shape"></path>
                        <path d="M66.6059406,17.0140128 L26.4920792,17.0140128 C24.9815842,17.0140128 23.7568317,18.2416809 23.7568317,19.7531605 C23.7568317,21.2676151 24.9817822,22.492705 26.4920792,22.492705 L66.6055446,22.492705 C68.1162376,22.492705 69.3405941,21.2674168 69.3405941,19.7531605 C69.3409901,18.2418792 68.1162376,17.0140128 66.6059406,17.0140128 Z" id="Shape"></path>
                        <path d="M66.6059406,30.0528797 L26.4920792,30.0528797 C24.9815842,30.0528797 23.7568317,31.2801512 23.7568317,32.7920275 C23.7568317,34.3060854 24.9817822,35.5315719 26.4920792,35.5315719 L66.6055446,35.5315719 C68.1162376,35.5315719 69.3405941,34.3058871 69.3405941,32.7920275 C69.3409901,31.2803495 68.1162376,30.0528797 66.6059406,30.0528797 Z" id="Shape"></path>
                        <path d="M66.6059406,43.09135 L26.4920792,43.09135 C24.9815842,43.09135 23.7568317,44.3192165 23.7568317,45.8310928 C23.7568317,47.3449524 24.9817822,48.5702405 26.4920792,48.5702405 L66.6055446,48.5702405 C68.1162376,48.5702405 69.3405941,47.3449524 69.3405941,45.8310928 C69.3409901,44.3192165 68.1162376,43.09135 66.6059406,43.09135 Z" id="Shape"></path>
                        <path d="M66.6059406,56.1304153 L26.4920792,56.1304153 C24.9815842,56.1304153 23.7568317,57.3582818 23.7568317,58.8695631 C23.7568317,60.3844143 24.9817822,61.6091075 26.4920792,61.6091075 L66.6055446,61.6091075 C68.1162376,61.6091075 69.3405941,60.3840177 69.3405941,58.8695631 C69.3409901,57.3582818 68.1162376,56.1304153 66.6059406,56.1304153 Z" id="Shape"></path>
                    </g>
                </g>
            </g>
        </g>
    </g>
</svg>